<?xml version="1.0" encoding="utf-8"?>
<svg xmlns="http://www.w3.org/2000/svg" fill="none" height="100%" overflow="visible" preserveAspectRatio="none" style="display: block;" viewBox="0 0 340 130" width="100%">
<path d="M167.241 0.418945C168.712 -0.10386 170.309 -0.137069 171.795 0.320313L172.091 0.418945L334.516 58.1738C340.937 60.4572 340.937 69.5438 334.516 71.8271L172.091 129.582C170.522 130.14 168.81 130.14 167.241 129.582L4.81641 71.8271L4.51953 71.7139C-1.50634 69.2989 -1.50669 60.6998 4.51953 58.2852L4.81641 58.1738L167.241 0.418945ZM171.476 2.15137C170.305 1.73535 169.028 1.7354 167.857 2.15137L5.43164 59.9072C0.640284 61.6111 0.640232 68.3899 5.43164 70.0938L167.857 127.85C169.028 128.266 170.305 128.266 171.476 127.85L333.901 70.0938C338.692 68.3897 338.692 61.6114 333.901 59.9072L171.476 2.15137ZM169.671 105.797C171.28 105.797 172.629 106.195 173.71 106.998C174.785 107.773 175.591 108.777 176.129 110.011C176.665 111.242 176.934 112.534 176.934 113.886C176.934 115.237 176.665 116.54 176.129 117.795C175.591 119.029 174.785 120.046 173.71 120.845L173.708 120.846C172.627 121.624 171.28 122.011 169.671 122.011C168.084 122.011 166.736 121.611 165.633 120.81C164.625 120.061 163.852 119.12 163.316 117.989L163.213 117.76C162.677 116.505 162.409 115.201 162.409 113.85C162.409 112.498 162.676 111.218 163.213 110.011C163.75 108.777 164.558 107.773 165.633 106.998C166.714 106.195 168.061 105.797 169.671 105.797ZM169.671 106.827C168.299 106.827 167.149 107.169 166.219 107.851C165.306 108.536 164.622 109.409 164.165 110.473C163.707 111.539 163.48 112.664 163.479 113.85C163.48 115.034 163.707 116.172 164.165 117.262L164.258 117.464C164.733 118.461 165.398 119.292 166.254 119.956L166.427 120.08C167.304 120.679 168.384 120.98 169.671 120.98C171.043 120.98 172.181 120.637 173.088 119.956C174.023 119.271 174.719 118.386 175.176 117.299C175.634 116.209 175.862 115.071 175.862 113.886C175.862 112.701 175.634 111.575 175.177 110.509H175.176C174.719 109.421 174.034 108.536 173.122 107.852C172.215 107.171 171.067 106.827 169.671 106.827ZM169.74 108.704C170.771 108.704 171.519 108.995 171.957 109.599C172.382 110.161 172.599 110.741 172.599 111.337C172.599 112.001 172.397 112.583 171.991 113.077C171.674 113.467 171.264 113.695 170.771 113.765C171.052 113.819 171.28 113.941 171.45 114.136C171.689 114.409 171.801 114.808 171.801 115.321V116.973C171.801 117.11 171.813 117.271 171.835 117.457C171.854 117.521 171.885 117.565 171.928 117.594C171.973 117.624 172.04 117.642 172.133 117.642C172.245 117.642 172.322 117.6 172.374 117.52C172.43 117.432 172.465 117.289 172.465 117.08V115.345H173.258V117.224C173.258 117.55 173.173 117.885 173.007 118.229L173.005 118.232C172.822 118.584 172.435 118.744 171.891 118.744C171.434 118.744 171.081 118.607 170.853 118.317L170.852 118.314C170.632 118.011 170.522 117.645 170.522 117.224V115.465C170.522 114.944 170.419 114.616 170.238 114.45L170.234 114.447C170.075 114.283 169.748 114.186 169.22 114.186H168.715V117.759L169.82 117.895L169.895 117.902V118.601H166.258V117.903L166.332 117.895L167.402 117.759V109.544L166.332 109.411L166.258 109.401V108.704H169.74ZM168.715 113.263H169.429C170.044 113.263 170.497 113.145 170.8 112.921C171.091 112.705 171.251 112.296 171.251 111.66V111.193C171.251 110.61 171.096 110.187 170.801 109.909C170.505 109.63 170.052 109.483 169.429 109.483H168.715V113.263ZM139.811 79.6846C139.811 81.0718 139.54 82.2788 139 83.3057C138.46 84.3325 137.694 85.1251 136.703 85.6836C135.73 86.242 134.559 86.5214 133.19 86.5215C131.425 86.5215 129.966 86.0167 128.812 85.0078C127.66 83.9809 126.939 82.5215 126.65 80.6299L129.866 79.9277C130.01 81.0807 130.361 81.9636 130.92 82.5762C131.496 83.1706 132.262 83.4677 133.217 83.4678C134.244 83.4678 135.046 83.1344 135.622 82.4678C136.217 81.7833 136.514 80.7837 136.514 79.4688V67.5781H139.811V79.6846ZM148.143 71.6045C149.458 71.6045 150.62 71.9109 151.629 72.5234C152.638 73.1359 153.421 74.0005 153.979 75.1172C154.556 76.2341 154.845 77.5494 154.845 79.0625C154.845 80.5578 154.556 81.8738 153.979 83.0088C153.421 84.1255 152.638 84.9901 151.629 85.6025C150.62 86.2151 149.458 86.5215 148.143 86.5215C146.827 86.5215 145.665 86.2151 144.656 85.6025C143.648 84.9901 142.855 84.1255 142.278 83.0088C141.72 81.8738 141.44 80.5578 141.44 79.0625C141.44 77.5494 141.72 76.2341 142.278 75.1172C142.855 74.0004 143.648 73.1359 144.656 72.5234C145.665 71.9109 146.827 71.6045 148.143 71.6045ZM159.503 80.1982C159.503 81.3691 159.792 82.2606 160.368 82.873C160.945 83.4676 161.656 83.7646 162.503 83.7646C163.332 83.7646 164.034 83.4675 164.61 82.873C165.115 82.3371 165.399 81.5876 165.462 80.624L165.476 80.1982V71.9014H168.61V86.2246H165.476V83.9756C165.062 84.7325 164.523 85.3294 163.854 85.7646C163.098 86.2691 162.223 86.5215 161.232 86.5215C159.809 86.5214 158.638 86.0259 157.72 85.0352C156.819 84.0263 156.368 82.6479 156.368 80.9004V71.9014H159.503V80.1982ZM199.571 71.6045C201.373 71.6045 202.778 72.0823 203.787 73.0371C204.796 73.9919 205.301 75.307 205.301 76.9824V83.0352C205.301 84.0981 205.436 85.1617 205.706 86.2246H202.517C202.409 85.7562 202.319 85.2784 202.247 84.792C202.211 84.4637 202.187 84.1394 202.175 83.8193C201.685 84.6504 201.054 85.3001 200.274 85.7646C199.428 86.2691 198.491 86.5215 197.464 86.5215C196.167 86.5215 195.139 86.1611 194.383 85.4404C193.644 84.7198 193.275 83.7921 193.275 82.6572C193.275 81.5763 193.636 80.6394 194.356 79.8467C195.095 79.0541 196.221 78.5222 197.734 78.252L202.166 77.5137V77.3066C202.166 76.2077 201.887 75.4235 201.328 74.9551C200.788 74.4868 200.139 74.253 199.383 74.2529C198.68 74.2529 198.076 74.4513 197.571 74.8477C197.085 75.244 196.734 75.8477 196.518 76.6582L193.545 75.8203C193.923 74.4332 194.644 73.3882 195.707 72.6855C196.788 71.965 198.076 71.6045 199.571 71.6045ZM178.425 75.1445H177.209C176.218 75.1445 175.426 75.4054 174.831 75.9277C174.255 76.4322 173.966 77.2974 173.966 78.5225V86.2246H170.831V71.9014H173.966V74.7813C174.369 73.8258 174.909 73.0729 175.588 72.5234C176.362 71.911 177.308 71.6046 178.425 71.6045V75.1445ZM186.84 71.6045C187.813 71.6045 188.669 71.8299 189.407 72.2803C190.146 72.7306 190.722 73.3789 191.137 74.2256C191.551 75.0723 191.759 76.0726 191.759 77.2256V86.2246H188.624V77.9277C188.624 76.7568 188.326 75.8738 187.731 75.2793C187.155 74.667 186.443 74.3613 185.597 74.3613C184.75 74.3614 184.03 74.6671 183.436 75.2793C182.859 75.8738 182.57 76.7568 182.57 77.9277V86.2246H179.436V71.9014H182.57V74.2178C182.987 73.4243 183.537 72.8056 184.219 72.3613C184.993 71.8569 185.867 71.6045 186.84 71.6045ZM210.651 86.2246H207.517V66.9023H210.651V86.2246ZM198.814 80.4678C197.95 80.6299 197.338 80.8825 196.978 81.2246C196.617 81.5669 196.437 81.9637 196.437 82.4141C196.437 82.7923 196.59 83.1435 196.896 83.4678C197.203 83.7739 197.68 83.9267 198.328 83.9268C198.941 83.9268 199.536 83.7834 200.112 83.4951C200.707 83.2069 201.193 82.7923 201.571 82.252C201.918 81.7632 202.113 81.1914 202.156 80.5371L202.166 80.252V79.7842L198.814 80.4678ZM148.143 74.415C147.098 74.415 146.259 74.7931 145.629 75.5498C144.998 76.3064 144.684 77.4774 144.684 79.0625C144.684 80.6478 144.998 81.8195 145.629 82.5762C146.259 83.3328 147.098 83.7109 148.143 83.7109C149.187 83.7109 150.025 83.3326 150.655 82.5762C151.286 81.8195 151.602 80.6479 151.602 79.0625C151.602 77.4773 151.286 76.3064 150.655 75.5498C150.025 74.7933 149.187 74.4151 148.143 74.415ZM22.665 61.4961H24.6025V62.2568H22.6504V66.707C22.6504 67.0707 22.7217 67.3394 22.8652 67.5117C23.0087 67.6743 23.2004 67.7548 23.4395 67.7549C23.6021 67.7549 23.7559 67.7222 23.8994 67.6553C24.0524 67.5883 24.2197 67.4924 24.4014 67.3682L24.7461 67.7412C24.3538 68.2482 23.7893 68.5019 23.0527 68.502C22.5551 68.502 22.157 68.3676 21.8604 68.0996C21.5639 67.8316 21.416 67.4201 21.416 66.8652V66.334C21.4256 66.1522 21.4297 65.922 21.4297 65.6445V62.2568H20.2383V61.625L21.5166 61.4678L21.8896 59.5439H22.751L22.665 61.4961ZM28.0078 61.3096C28.5054 61.3096 28.9555 61.4196 29.3574 61.6396C29.7593 61.8597 30.0801 62.1755 30.3193 62.5869C30.5585 62.9888 30.6787 63.4818 30.6787 64.0654C30.6787 64.2281 30.6686 64.3818 30.6494 64.5254C30.6303 64.6593 30.6068 64.7744 30.5781 64.8701H25.998C26.0172 65.7504 26.2372 66.4205 26.6582 66.8799C27.0793 67.3393 27.6351 67.5684 28.3242 67.5684C28.7835 67.5683 29.1664 67.4777 29.4727 67.2959C29.7789 67.1045 30.061 66.8601 30.3193 66.5635L30.6641 66.8369C30.3961 67.344 30.0324 67.7504 29.5732 68.0566C29.1138 68.3533 28.558 68.502 27.9072 68.502C26.9408 68.5019 26.1658 68.1904 25.582 67.5684C24.9984 66.9368 24.7061 66.071 24.7061 64.9707C24.7061 64.2338 24.8547 63.5924 25.1514 63.0469C25.4576 62.5013 25.8597 62.0748 26.3574 61.7686C26.8645 61.4625 27.4147 61.3096 28.0078 61.3096ZM34.5801 61.3096C35.0107 61.3096 35.4078 61.391 35.7715 61.5537C36.1351 61.7164 36.4365 61.9414 36.6758 62.2285C36.915 62.506 37.0637 62.8217 37.1211 63.1758C37.0541 63.5393 36.834 63.7216 36.4609 63.7217C36.2217 63.7217 36.0395 63.6586 35.915 63.5342C35.8003 63.4002 35.7187 63.2331 35.6709 63.0322L35.4121 62.085C35.2783 62.0372 35.1446 62.0086 35.0107 61.999C34.8864 61.9799 34.762 61.9697 34.6377 61.9697C34.0252 61.9697 33.5172 62.209 33.1152 62.6875C32.7229 63.166 32.5274 63.8647 32.5273 64.7832C32.5273 65.6827 32.7423 66.3721 33.1729 66.8506C33.6035 67.3291 34.1543 67.5684 34.8242 67.5684C35.2356 67.5683 35.6135 67.4777 35.958 67.2959C36.3025 67.1045 36.5846 66.8316 36.8047 66.4775L37.1641 66.6641C36.9631 67.2575 36.6373 67.7125 36.1875 68.0283C35.7378 68.344 35.1734 68.5019 34.4941 68.502C33.5084 68.502 32.7235 68.1812 32.1396 67.54C31.5558 66.8988 31.2637 66.0274 31.2637 64.9268C31.2637 64.171 31.4165 63.5251 31.7227 62.9893C32.0385 62.4437 32.4508 62.0274 32.958 61.7402C33.4652 61.4532 34.0059 61.3096 34.5801 61.3096ZM301.09 57.8213L301.032 59.8594V67.627L302.195 67.7988V68.3154L299.97 68.459L299.869 67.4688C299.62 67.7941 299.333 68.0477 299.008 68.2295C298.692 68.4113 298.309 68.502 297.859 68.502C297.276 68.5019 296.763 68.3542 296.323 68.0576C295.883 67.7609 295.539 67.3487 295.29 66.8223C295.051 66.2863 294.931 65.6693 294.931 64.9707C294.931 64.2337 295.065 63.5924 295.333 63.0469C295.601 62.5015 295.965 62.0758 296.424 61.7695C296.883 61.4633 297.405 61.3096 297.988 61.3096C298.323 61.3096 298.644 61.3768 298.95 61.5107C299.266 61.6447 299.572 61.889 299.869 62.2432V58.998L298.649 58.8545V58.3525L300.889 57.7061L301.09 57.8213ZM305.204 61.3096C305.96 61.3096 306.52 61.5011 306.884 61.8838C307.247 62.2571 307.43 62.8984 307.43 63.8076V66.8652C307.43 67.1713 307.478 67.3914 307.573 67.5254C307.669 67.6498 307.793 67.7129 307.946 67.7129C308.071 67.7129 308.177 67.6834 308.263 67.626C308.349 67.5686 308.429 67.492 308.506 67.3965L308.793 67.7129C308.621 67.9902 308.429 68.186 308.219 68.3008C308.018 68.406 307.793 68.459 307.544 68.459C307.2 68.4589 306.912 68.3581 306.683 68.1572C306.453 67.9563 306.309 67.6883 306.252 67.3535C305.86 67.7362 305.515 68.0235 305.219 68.2148C304.922 68.4063 304.563 68.502 304.142 68.502C303.615 68.5019 303.161 68.3533 302.778 68.0566C302.405 67.7505 302.218 67.3011 302.218 66.708C302.218 66.4305 302.281 66.1719 302.405 65.9326C302.539 65.6933 302.778 65.4582 303.123 65.2285C303.468 64.9989 303.961 64.7696 304.602 64.54C304.822 64.4635 305.075 64.382 305.362 64.2959C305.649 64.2098 305.937 64.1334 306.224 64.0664V63.707C306.224 63.0086 306.119 62.5442 305.908 62.3145C305.698 62.0848 305.353 61.9697 304.874 61.9697C304.769 61.9697 304.649 61.9748 304.516 61.9844C304.391 61.9939 304.252 62.0174 304.099 62.0557L303.826 62.9893C303.692 63.4485 303.444 63.6785 303.08 63.6787C302.678 63.6787 302.453 63.4822 302.405 63.0898C302.539 62.5443 302.855 62.1137 303.353 61.7979C303.86 61.4725 304.477 61.3096 305.204 61.3096ZM310.714 61.4961H312.652V62.2568H310.7V66.708C310.7 67.0715 310.772 67.3395 310.915 67.5117C311.059 67.6744 311.25 67.7558 311.489 67.7559C311.652 67.7559 311.806 67.7223 311.949 67.6553C312.102 67.5883 312.269 67.4925 312.451 67.3682L312.796 67.7412C312.403 68.2485 311.839 68.502 311.102 68.502C310.604 68.5019 310.207 68.3684 309.91 68.1006C309.613 67.8326 309.465 67.4203 309.465 66.8652V66.334C309.474 66.1522 309.479 65.9228 309.479 65.6455V62.2568H308.288V61.626L309.565 61.4678L309.939 59.5439H310.801L310.714 61.4961ZM315.741 61.3096C316.497 61.3096 317.057 61.5011 317.421 61.8838C317.785 62.2571 317.967 62.8984 317.967 63.8076V66.8652C317.967 67.1713 318.015 67.3914 318.11 67.5254C318.206 67.6497 318.33 67.7128 318.483 67.7129C318.608 67.7129 318.714 67.6834 318.8 67.626C318.886 67.5686 318.967 67.4921 319.044 67.3965L319.331 67.7129C319.159 67.9902 318.967 68.1859 318.757 68.3008C318.556 68.406 318.331 68.4589 318.082 68.459C317.738 68.459 317.45 68.3582 317.221 68.1572C316.991 67.9562 316.847 67.6885 316.79 67.3535C316.398 67.7363 316.053 68.0234 315.756 68.2148C315.459 68.4062 315.101 68.5019 314.68 68.502C314.153 68.502 313.698 68.3533 313.315 68.0566C312.942 67.7504 312.756 67.3003 312.756 66.707C312.756 66.4297 312.818 66.1717 312.942 65.9326C313.076 65.6933 313.316 65.4582 313.66 65.2285C314.005 64.9989 314.498 64.7697 315.139 64.54C315.359 64.4635 315.612 64.382 315.899 64.2959C316.186 64.2098 316.474 64.1334 316.761 64.0664V63.707C316.761 63.0084 316.656 62.5442 316.445 62.3145C316.235 62.0848 315.89 61.9697 315.411 61.9697C315.306 61.9697 315.187 61.9748 315.053 61.9844C314.928 61.9939 314.79 62.0175 314.637 62.0557L314.363 62.9893C314.229 63.4485 313.981 63.6786 313.617 63.6787C313.215 63.6787 312.99 63.4822 312.942 63.0898C313.076 62.5444 313.392 62.1137 313.89 61.7979C314.397 61.4725 315.014 61.3096 315.741 61.3096ZM39.5547 57.8203L39.4971 59.8594V62.6299C39.8512 62.2375 40.2635 61.9219 40.7324 61.6826C41.2013 61.4339 41.6657 61.3096 42.125 61.3096C42.7469 61.3096 43.2063 61.5204 43.5029 61.9414C43.809 62.3529 43.9619 63.0273 43.9619 63.9648V66.4199C43.9715 66.841 43.9816 67.234 43.9912 67.5977L44.9961 67.7988V68.3154H41.665V67.7988L42.7129 67.6113C42.7225 67.2478 42.7275 66.8555 42.7275 66.4346C42.7371 66.0041 42.7422 65.6261 42.7422 65.3008V64.0801C42.7422 63.4197 42.6506 62.9647 42.4687 62.7158C42.2869 62.4673 41.9853 62.3428 41.5645 62.3428C41.2104 62.3428 40.8753 62.4151 40.5596 62.5586C40.2439 62.7022 39.9045 62.9416 39.541 63.2764V66.4199C39.5506 66.841 39.5598 67.234 39.5693 67.5977L40.5596 67.7988V68.3154H37.2295V67.7988L38.3057 67.5977C38.3152 67.234 38.3203 66.841 38.3203 66.4199C38.3299 65.9895 38.335 65.6165 38.335 65.3008V58.998L37.1572 58.8545V58.3516L39.3535 57.7061L39.5547 57.8203ZM298.204 62.1279C297.85 62.1279 297.519 62.2287 297.213 62.4297C296.916 62.6211 296.677 62.9277 296.495 63.3486C296.313 63.7601 296.223 64.2917 296.223 64.9424C296.223 65.8799 296.409 66.5737 296.782 67.0234C297.165 67.4637 297.645 67.6836 298.219 67.6836C298.534 67.6835 298.812 67.6214 299.051 67.4971C299.3 67.3631 299.558 67.1482 299.826 66.8516V62.875C299.501 62.5879 299.209 62.3914 298.95 62.2861C298.692 62.1809 298.443 62.128 298.204 62.1279ZM306.224 64.5977C305.975 64.6646 305.73 64.741 305.491 64.8271C305.252 64.9036 305.056 64.9709 304.903 65.0283C304.492 65.191 304.185 65.3581 303.984 65.5303C303.783 65.7025 303.649 65.8705 303.582 66.0332C303.525 66.1958 303.496 66.3487 303.496 66.4922C303.496 66.875 303.606 67.1478 303.826 67.3105C304.046 67.4732 304.319 67.5547 304.645 67.5547C304.788 67.5547 304.922 67.5353 305.047 67.4971C305.181 67.4588 305.339 67.3874 305.521 67.2822C305.702 67.1674 305.937 67.0044 306.224 66.7939V64.5977ZM316.761 64.5967C316.512 64.6637 316.268 64.741 316.028 64.8271C315.789 64.9036 315.593 64.97 315.44 65.0273C315.029 65.19 314.722 65.358 314.521 65.5303C314.32 65.7025 314.186 65.8705 314.119 66.0332C314.062 66.1957 314.033 66.3488 314.033 66.4922C314.033 66.875 314.143 67.1478 314.363 67.3105C314.583 67.4732 314.856 67.5547 315.182 67.5547C315.325 67.5547 315.46 67.5354 315.584 67.4971C315.718 67.4588 315.876 67.3874 316.058 67.2822C316.239 67.1674 316.474 67.0044 316.761 66.7939V64.5967ZM27.9219 61.9697C27.6539 61.9698 27.381 62.0461 27.1035 62.1992C26.8356 62.3523 26.6014 62.5967 26.4004 62.9316C26.209 63.2666 26.0848 63.7116 26.0273 64.2666H28.6396C28.984 64.2666 29.2091 64.1952 29.3145 64.0518C29.4293 63.9082 29.4873 63.731 29.4873 63.5205C29.4873 63.243 29.415 62.9894 29.2715 62.7598C29.1376 62.5206 28.951 62.3291 28.7119 62.1855C28.4822 62.042 28.2186 61.9697 27.9219 61.9697ZM130.353 48.8037C131.632 48.8037 132.758 49.1008 133.73 49.6953C134.703 50.2898 135.461 51.1457 136.001 52.2627C136.559 53.3795 136.838 54.7126 136.838 56.2617V56.7217C136.838 56.8657 136.83 57.0458 136.812 57.2617H126.994C127.1 58.3492 127.391 59.1867 127.866 59.7744C128.497 60.5131 129.362 60.8828 130.461 60.8828C131.181 60.8828 131.803 60.7207 132.325 60.3965C132.848 60.0722 133.253 59.5404 133.541 58.8018L136.514 59.8018C136.081 61.0268 135.325 61.9908 134.244 62.6934C133.181 63.3779 131.893 63.7207 130.38 63.7207C129.047 63.7207 127.875 63.4143 126.866 62.8018C125.875 62.1892 125.101 61.3239 124.543 60.207C123.984 59.0721 123.705 57.757 123.705 56.2617C123.705 54.7125 123.985 53.3796 124.543 52.2627C125.119 51.1458 125.903 50.2898 126.894 49.6953C127.902 49.1008 129.055 48.8037 130.353 48.8037ZM142.045 49.1006H146.044V51.7764H142.045V58.4775C142.045 59.2702 142.234 59.856 142.612 60.2344C143.009 60.6127 143.576 60.8017 144.314 60.8018C144.657 60.8018 144.981 60.7747 145.287 60.7207C145.593 60.6667 145.891 60.6043 146.18 60.5322V63.4229C145.801 63.5309 145.405 63.6036 144.99 63.6396C144.576 63.6937 144.098 63.7207 143.558 63.7207C142.099 63.7206 140.955 63.3239 140.126 62.5313C139.297 61.7386 138.883 60.5499 138.883 58.9648V51.7764H136.938V49.1006H138.883V46.1279L142.045 45.5068V49.1006ZM167.804 48.8037C169.083 48.8038 170.209 49.1008 171.182 49.6953C172.154 50.2898 172.911 51.1458 173.451 52.2627C174.01 53.3796 174.289 54.7125 174.289 56.2617V56.7217C174.289 56.8657 174.28 57.0458 174.262 57.2617H164.445C164.552 58.3492 164.842 59.1867 165.317 59.7744C165.948 60.513 166.812 60.8827 167.911 60.8828C168.632 60.8828 169.254 60.7208 169.776 60.3965C170.299 60.0722 170.704 59.5403 170.992 58.8018L173.965 59.8018C173.532 61.0268 172.775 61.9907 171.694 62.6934C170.631 63.3778 169.343 63.7207 167.83 63.7207C166.497 63.7206 165.326 63.4142 164.317 62.8018C163.327 62.1892 162.552 61.324 161.993 60.207C161.435 59.0721 161.155 57.7569 161.155 56.2617C161.155 54.7126 161.435 53.3796 161.993 52.2627C162.57 51.1457 163.354 50.2898 164.345 49.6953C165.354 49.1008 166.507 48.8037 167.804 48.8037ZM205.043 48.8037C206.322 48.8037 207.448 49.1008 208.421 49.6953C209.394 50.2898 210.151 51.1457 210.691 52.2627C211.25 53.3796 211.528 54.7126 211.528 56.2617V56.7207C211.528 56.8648 211.52 57.0455 211.502 57.2617H201.685C201.791 58.3491 202.081 59.1867 202.557 59.7744C203.187 60.5131 204.052 60.8828 205.151 60.8828C205.872 60.8828 206.493 60.7207 207.016 60.3965C207.538 60.0722 207.943 59.5404 208.231 58.8018L211.204 59.8018C210.772 61.0268 210.015 61.9908 208.935 62.6934C207.872 63.3779 206.584 63.7207 205.07 63.7207C203.737 63.7207 202.566 63.4143 201.557 62.8018C200.566 62.1892 199.792 61.3239 199.233 60.207C198.675 59.072 198.396 57.757 198.396 56.2617C198.396 54.7125 198.675 53.3796 199.233 52.2627C199.81 51.1458 200.593 50.2898 201.584 49.6953C202.593 49.1008 203.746 48.8037 205.043 48.8037ZM230.687 63.4229H227.553V61.0967C227.377 61.4541 227.17 61.7799 226.931 62.0723C226.03 63.171 224.832 63.7206 223.337 63.7207C222.238 63.7207 221.265 63.4236 220.418 62.8291C219.571 62.2346 218.904 61.3786 218.418 60.2617C217.95 59.1447 217.716 57.8111 217.716 56.2617C217.716 54.6946 217.95 53.3615 218.418 52.2627C218.904 51.1458 219.571 50.2898 220.418 49.6953C221.265 49.1008 222.238 48.8037 223.337 48.8037C224.832 48.8038 226.03 49.3533 226.931 50.4521C227.17 50.7444 227.377 51.0695 227.553 51.4268V44.1016H230.687V63.4229ZM123.833 63.4229H120.347L118.768 58.5586H111.345L109.808 63.4229H106.402L112.699 44.7773H117.536L123.833 63.4229ZM150.451 51.417C150.868 50.6234 151.417 50.0048 152.1 49.5605C152.874 49.0561 153.748 48.8037 154.721 48.8037C155.694 48.8037 156.549 49.0291 157.288 49.4795C158.027 49.9299 158.603 50.5782 159.018 51.4248C159.432 52.2715 159.639 53.2718 159.639 54.4248V63.4229H156.504V55.127C156.504 53.956 156.207 53.073 155.612 52.4785C155.036 51.8661 154.324 51.5596 153.478 51.5596C152.631 51.5596 151.91 51.866 151.315 52.4785C150.811 52.9987 150.528 53.7397 150.465 54.7012L150.451 55.127V63.4229H147.316V44.1016H150.451V51.417ZM189.722 43.7773C190.154 43.7774 190.532 43.8044 190.856 43.8584C191.199 43.9124 191.55 43.9842 191.91 44.0742V46.8037C191.64 46.7316 191.361 46.6683 191.072 46.6143C190.802 46.5602 190.505 46.5332 190.181 46.5332C189.496 46.5332 188.974 46.7046 188.613 47.0469C188.271 47.3891 188.1 47.8754 188.1 48.5059V49.1006H196.883V63.4229H193.748V51.7754H188.1V63.4229H184.938V51.7754H183.387V52.3438H182.171C181.18 52.3438 180.387 52.6045 179.793 53.127C179.216 53.6314 178.928 54.4966 178.928 55.7217V63.4229H175.793V49.1006H178.928V51.9795C179.331 51.0243 179.871 50.2711 180.55 49.7217C181.324 49.1094 182.27 48.8038 183.387 48.8037V49.1006H184.938V48.6953C184.938 47.0559 185.361 45.8302 186.208 45.0195C187.055 44.1909 188.226 43.7773 189.722 43.7773ZM216.168 63.4229H213.033V44.1016H216.168V63.4229ZM224.337 51.5869C223.328 51.5869 222.508 51.965 221.877 52.7217C221.264 53.4783 220.959 54.6585 220.959 56.2617C220.959 57.8649 221.265 59.0451 221.877 59.8018C222.508 60.5584 223.328 60.9375 224.337 60.9375C225.346 60.9374 226.156 60.5583 226.769 59.8018C227.399 59.0451 227.715 57.865 227.715 56.2617C227.715 54.6584 227.399 53.4783 226.769 52.7217C226.156 51.9652 225.346 51.587 224.337 51.5869ZM112.283 55.5869H117.803L115.005 46.9707L112.283 55.5869ZM130.353 51.4785C129.326 51.4785 128.497 51.8567 127.866 52.6133C127.427 53.1426 127.147 53.9177 127.022 54.9375H133.526C133.41 53.902 133.145 53.1185 132.73 52.5869C132.154 51.8483 131.361 51.4785 130.353 51.4785ZM167.804 51.4785C166.777 51.4785 165.948 51.8568 165.317 52.6133C164.878 53.1426 164.598 53.9177 164.474 54.9375H170.978C170.861 53.9021 170.596 53.1185 170.182 52.5869C169.605 51.8483 168.812 51.4786 167.804 51.4785ZM205.043 51.4785C204.016 51.4785 203.187 51.8567 202.557 52.6133C202.118 53.1427 201.837 53.9177 201.713 54.9375H208.217C208.101 53.902 207.836 53.1185 207.421 52.5869C206.844 51.8483 206.052 51.4785 205.043 51.4785ZM195.315 43.5605C195.856 43.5606 196.306 43.7413 196.666 44.1016C197.044 44.4439 197.233 44.903 197.233 45.4795C197.233 46.0379 197.044 46.4878 196.666 46.8301C196.306 47.1723 195.856 47.3437 195.315 47.3438C194.775 47.3438 194.315 47.1724 193.937 46.8301C193.577 46.4879 193.397 46.0377 193.396 45.4795C193.396 44.9032 193.576 44.4438 193.937 44.1016C194.315 43.7412 194.775 43.5605 195.315 43.5605ZM179.675 9.53516L179.618 11.5742V14.3447C179.972 13.9524 180.384 13.6367 180.853 13.3975C181.322 13.1486 181.786 13.0234 182.245 13.0234C182.867 13.0235 183.326 13.2343 183.623 13.6553C183.929 14.0668 184.083 14.7417 184.083 15.6797V18.1348C184.093 18.5557 184.102 18.948 184.111 19.3115L185.116 19.5127V20.0293H181.785V19.5127L182.834 19.3262C182.844 18.9626 182.848 18.5704 182.848 18.1494C182.857 17.7187 182.862 17.3401 182.862 17.0146V15.7949C182.862 15.1347 182.772 14.6795 182.59 14.4307C182.408 14.1818 182.106 14.0576 181.685 14.0576C181.331 14.0577 180.995 14.129 180.68 14.2725C180.364 14.416 180.025 14.6555 179.661 14.9902V18.1348C179.671 18.5557 179.68 18.948 179.689 19.3115L180.68 19.5127V20.0293H177.35V19.7236C176.98 20.0501 176.502 20.2168 175.911 20.2168C175.414 20.2168 175.016 20.0823 174.72 19.8145C174.423 19.5465 174.274 19.135 174.274 18.5801V18.0488C174.284 17.867 174.289 17.6369 174.289 17.3594V13.9717H173.277C173.179 14.3924 172.912 14.6035 172.474 14.6035C172.311 14.6035 172.158 14.574 172.015 14.5166C171.871 14.4496 171.733 14.3589 171.599 14.2441L171.426 14.0859C171.139 14.2965 170.899 14.5551 170.708 14.8613C170.517 15.1676 170.359 15.5269 170.234 15.9385V18.1201C170.244 18.5412 170.254 18.9342 170.264 19.2979L171.44 19.5127V20.0293H167.952V19.5742C167.807 19.7743 167.65 19.9225 167.479 20.0156C167.279 20.1209 167.054 20.1729 166.805 20.1729C166.46 20.1728 166.173 20.073 165.943 19.8721C165.714 19.6711 165.57 19.4024 165.513 19.0674C165.12 19.4502 164.775 19.7383 164.479 19.9297C164.182 20.1209 163.823 20.2168 163.402 20.2168C162.876 20.2168 162.421 20.0682 162.038 19.7715C161.665 19.4652 161.479 19.0152 161.479 18.4219C161.479 18.1443 161.541 17.8858 161.665 17.6465C161.799 17.4073 162.038 17.173 162.383 16.9434C162.727 16.7137 163.22 16.4836 163.861 16.2539C164.081 16.1774 164.335 16.0959 164.622 16.0098C164.909 15.9236 165.197 15.8473 165.484 15.7803V15.4209C165.484 14.7227 165.378 14.259 165.168 14.0293C164.957 13.7996 164.613 13.6846 164.135 13.6846C164.029 13.6846 163.909 13.6887 163.775 13.6982C163.651 13.7078 163.512 13.7323 163.359 13.7705L163.087 14.7031C162.953 15.1625 162.704 15.3926 162.34 15.3926C161.938 15.3926 161.713 15.1961 161.665 14.8037C161.799 14.2584 162.115 13.8275 162.612 13.5117C163.12 13.1863 163.737 13.0234 164.465 13.0234C165.221 13.0235 165.781 13.215 166.145 13.5977C166.508 13.9709 166.689 14.6125 166.689 15.5215V18.5801C166.689 18.8861 166.737 19.1063 166.833 19.2402C166.929 19.3647 167.054 19.4268 167.207 19.4268C167.331 19.4267 167.436 19.3981 167.522 19.3408C167.609 19.2834 167.69 19.2069 167.767 19.1113L168.054 19.4268C168.037 19.4539 168.017 19.4784 168 19.5039L168.985 19.3262C168.995 18.9626 169 18.5704 169 18.1494C169.01 17.7187 169.015 17.3401 169.015 17.0146V16.3262C169.015 15.9338 169.01 15.608 169 15.3496C169 15.0912 168.991 14.8184 168.972 14.5313L167.837 14.4023V13.8994L169.847 13.0234L170.062 13.167L170.22 14.8613C170.459 14.2871 170.765 13.8371 171.139 13.5117C171.521 13.1864 171.904 13.0235 172.287 13.0234C172.507 13.0234 172.714 13.0713 172.905 13.167C172.999 13.214 173.08 13.2699 173.148 13.333L174.375 13.1816L174.748 11.2578H175.609L175.523 13.2109H177.462V13.9717H175.509V18.4219C175.509 18.7855 175.581 19.0533 175.725 19.2256C175.868 19.3883 176.06 19.4697 176.299 19.4697C176.461 19.4697 176.614 19.4361 176.758 19.3691C176.911 19.3021 177.079 19.2065 177.261 19.082L177.605 19.4551C177.602 19.4589 177.598 19.462 177.595 19.4658L178.426 19.3115C178.435 18.948 178.44 18.5557 178.44 18.1348C178.45 17.7041 178.455 17.3305 178.455 17.0146V10.7129L177.277 10.5693V10.0664L179.475 9.41992L179.675 9.53516ZM158.32 13.0234C158.818 13.0235 159.268 13.1334 159.67 13.3535C160.072 13.5736 160.393 13.8902 160.632 14.3018C160.871 14.7037 160.99 15.1966 160.99 15.7803C160.99 15.9428 160.981 16.0958 160.962 16.2393C160.943 16.3732 160.918 16.4883 160.89 16.584H156.311C156.33 17.4644 156.55 18.1344 156.971 18.5938C157.392 19.0531 157.947 19.2831 158.636 19.2832C159.095 19.2832 159.478 19.1924 159.784 19.0107C160.09 18.8193 160.373 18.575 160.632 18.2783L160.977 18.5508C160.709 19.058 160.344 19.4652 159.885 19.7715C159.425 20.068 158.87 20.2158 158.22 20.2158C157.253 20.2158 156.477 19.9053 155.894 19.2832C155.31 18.6515 155.019 17.7851 155.019 16.6846C155.019 15.9477 155.166 15.3063 155.463 14.7607C155.769 14.2153 156.171 13.7897 156.669 13.4834C157.176 13.1771 157.727 13.0234 158.32 13.0234ZM165.484 16.3115C165.236 16.3785 164.991 16.4549 164.752 16.541C164.513 16.6176 164.316 16.6848 164.163 16.7422C163.752 16.9049 163.445 17.0719 163.244 17.2441C163.043 17.4164 162.91 17.5844 162.843 17.7471C162.785 17.9096 162.756 18.0626 162.756 18.2061C162.756 18.5889 162.867 18.8617 163.087 19.0244C163.307 19.187 163.579 19.2685 163.904 19.2686C164.048 19.2686 164.182 19.2502 164.307 19.2119C164.441 19.1736 164.598 19.1013 164.78 18.9961C164.962 18.8812 165.197 18.7184 165.484 18.5078V16.3115ZM158.234 13.6846C157.966 13.6846 157.694 13.761 157.416 13.9141C157.148 14.0672 156.913 14.3115 156.712 14.6465C156.521 14.9814 156.396 15.4266 156.339 15.9814H158.952C159.297 15.9814 159.522 15.9091 159.627 15.7656C159.742 15.6221 159.799 15.4448 159.799 15.2344C159.799 14.957 159.727 14.7032 159.584 14.4736C159.45 14.2344 159.263 14.043 159.023 13.8994C158.794 13.756 158.531 13.6846 158.234 13.6846Z" fill="var(--fill-0, #2683EB)" id="Sticker"/>
</svg>