<?xml version="1.0" encoding="utf-8"?>
<svg xmlns="http://www.w3.org/2000/svg" fill="none" height="100%" overflow="visible" preserveAspectRatio="none" style="display: block;" viewBox="0 0 42 42" width="100%">
<path d="M21 0C32.598 0 42 9.40202 42 21C42 32.2627 33.1336 41.4536 22 41.9756V42H20V41.9756C8.86639 41.4536 0 32.2627 0 21C0 9.40202 9.40202 0 21 0ZM20 2.02539C9.97142 2.54539 2 10.842 2 21C2 31.158 9.97145 39.4536 20 39.9736V2.02539ZM22 22V39.9736C31.6974 39.4708 39.4718 31.6974 39.9746 22H22ZM22 20H39.9746C39.4718 10.3026 31.6974 2.52822 22 2.02539V20Z" fill="var(--fill-0, black)" id="Union"/>
</svg>